<svg xmlns="http://www.w3.org/2000/svg" viewBox="0 0 24 24" fill="none">
  <!-- Background circle for better visibility -->
  <circle cx="12" cy="12" r="11" fill="#FFFBEB"/>

  <!-- Brain shape - left lobe with amber color -->
  <path d="M9.5 2A2.5 2.5 0 0 1 12 4.5v15a2.5 2.5 0 0 1-4.96.44L2.37 16.82A2.5 2.5 0 0 1 2 15.56V8.5a2.5 2.5 0 0 1 1.5-2.3L9.5 2Z" stroke="#D97706" stroke-width="2" stroke-linecap="round" stroke-linejoin="round"/>

  <!-- Brain shape - right lobe with amber color -->
  <path d="M14.5 2A2.5 2.5 0 0 0 12 4.5v15a2.5 2.5 0 0 0 4.96.44L21.63 16.82A2.5 2.5 0 0 0 22 15.56V8.5a2.5 2.5 0 0 0-1.5-2.3L14.5 2Z" stroke="#D97706" stroke-width="2" stroke-linecap="round" stroke-linejoin="round"/>

  <!-- Circuit connection nodes with purple accents -->
  <circle cx="9.5" cy="9" r="1.3" fill="#8B5CF6"/>
  <circle cx="14.5" cy="9" r="1.3" fill="#8B5CF6"/>
  <circle cx="8.5" cy="12.5" r="1.3" fill="#D97706"/>
  <circle cx="15.5" cy="12.5" r="1.3" fill="#D97706"/>
  <circle cx="10.5" cy="16" r="1.3" fill="#F97316"/>
  <circle cx="13.5" cy="16" r="1.3" fill="#F97316"/>
  <circle cx="12" cy="19" r="1.3" fill="#8B5CF6"/>

  <!-- Connection lines forming circuit paths -->
  <path d="M9.5 9L8.5 12.5M14.5 9L15.5 12.5M8.5 12.5L10.5 16M15.5 12.5L13.5 16M10.5 16L12 19M13.5 16L12 19" stroke="#D97706" stroke-width="1.5" stroke-linecap="round"/>

  <!-- Additional cross connections for circuit effect -->
  <path d="M9.5 9L12 11M14.5 9L12 11" stroke="#8B5CF6" stroke-width="1.2" stroke-linecap="round" opacity="0.8"/>
</svg>
